<?xml version="1.0" standalone="no"?>
<!DOCTYPE svg PUBLIC "-//W3C//DTD SVG 20010904//EN"
 "http://www.w3.org/TR/2001/REC-SVG-20010904/DTD/svg10.dtd">
<svg version="1.0" xmlns="http://www.w3.org/2000/svg"
 width="500.000000pt" height="500.000000pt" viewBox="0 0 500.000000 500.000000"
 preserveAspectRatio="xMidYMid meet">

<g transform="translate(0.000000,500.000000) scale(0.100000,-0.100000)"
fill="#000000" stroke="none">
<path d="M1605 3083 c-76 -16 -105 -53 -105 -133 0 -46 4 -56 34 -86 31 -31
40 -34 90 -34 32 0 70 7 87 16 32 16 59 66 59 109 0 39 -25 92 -52 108 -26 17
-83 27 -113 20z m49 -63 c57 -21 39 -130 -22 -130 -39 0 -52 17 -52 66 0 33 5
47 22 58 27 19 21 18 52 6z"/>
<path d="M1892 3080 c-44 -10 -70 -36 -83 -81 -16 -51 -3 -106 31 -141 24 -23
37 -28 80 -28 28 0 61 5 73 11 16 9 22 9 25 0 2 -6 15 -11 28 -11 23 0 24 3
24 70 l0 70 -70 0 c-68 0 -70 -1 -70 -25 0 -21 5 -25 30 -25 32 0 40 -14 14
-24 -57 -22 -101 17 -90 79 5 25 14 39 32 45 26 10 74 -2 74 -20 0 -5 18 -10
40 -10 45 0 44 -1 28 35 -21 46 -99 72 -166 55z"/>
<path d="M980 2955 l0 -125 100 0 c94 0 103 2 125 25 30 30 32 58 4 86 -19 19
-19 22 -5 38 23 25 20 67 -6 85 -17 12 -48 16 -120 16 l-98 0 0 -125z m155 50
c0 -15 -8 -21 -32 -23 -30 -3 -33 -1 -33 23 0 24 3 26 33 23 24 -2 32 -8 32
-23z m10 -95 c0 -10 -12 -16 -37 -18 -33 -3 -38 0 -38 18 0 18 5 21 38 18 25
-2 37 -8 37 -18z"/>
<path d="M1270 2955 l0 -125 105 0 105 0 0 30 0 30 -65 0 -65 0 0 95 0 95 -40
0 -40 0 0 -125z"/>
<path d="M2120 2955 l0 -125 40 0 40 0 0 51 0 50 43 -3 42 -3 3 -47 3 -48 40
0 39 0 0 125 0 125 -40 0 -40 0 0 -45 0 -45 -45 0 -45 0 0 45 0 45 -40 0 -40
0 0 -125z"/>
<path d="M2420 2995 c0 -46 5 -96 12 -110 17 -37 57 -55 123 -55 49 0 60 4 86
29 28 28 29 33 29 125 l0 96 -40 0 -40 0 0 -79 c0 -99 -5 -111 -41 -111 -39 0
-49 24 -49 114 l0 76 -40 0 -40 0 0 -85z"/>
<path d="M2730 2955 l0 -125 94 0 c79 0 97 3 120 21 32 25 35 68 6 94 -18 16
-19 20 -5 27 21 12 19 71 -3 91 -15 13 -39 17 -115 17 l-97 0 0 -125z m145 50
c0 -15 -8 -21 -32 -23 -30 -3 -33 -1 -33 23 0 24 3 26 33 23 24 -2 32 -8 32
-23z m10 -95 c0 -10 -12 -16 -37 -18 -33 -3 -38 0 -38 18 0 18 5 21 38 18 25
-2 37 -8 37 -18z"/>
</g>
</svg>
